<svg id="Grupo_3770" data-name="Grupo 3770" xmlns="http://www.w3.org/2000/svg" width="224.576" height="123.907" viewBox="0 0 224.576 123.907">
  <path id="Caminho_10118" data-name="Caminho 10118" d="M126.632,235.119a2.594,2.594,0,0,1-1.46,1.926c-7.031,3.332-13.886,4.012-21.291,4.364-18.051.619-30.247-8.093-29.628-25.02.993-25.639,19.671-37.217,37.966-37.844,13.572-.374,27.886,5.1,23.9,20.664-2.988,12.327-15.559,18.051-26.388,18.425a36.242,36.242,0,0,1-15.093-2.147,2.6,2.6,0,0,0-3.561,2.705c.795,7.031,7.795,9.713,16.912,9.4a56.487,56.487,0,0,0,16.53-3.049,2.609,2.609,0,0,1,3.393,2.9Zm-17.9-29.3c4.983-.122,9.583-2.117,10.707-6.6,1.36-5.441-4.646-7.2-9.239-7.222a1.6,1.6,0,0,0-.191.008c-5.556.352-10.623,2.614-14.039,8.215a2.616,2.616,0,0,0,1.3,3.8A29.1,29.1,0,0,0,108.734,205.819Z" transform="translate(-74.231 -149.17)" fill="#58397e"/>
  <path id="Caminho_10119" data-name="Caminho 10119" d="M170.213,184.19h-6.4a2.75,2.75,0,0,1-2.69-3.317l1.444-6.824a2.749,2.749,0,0,1,2.69-2.178h9.025a2.755,2.755,0,0,0,2.682-2.132l1.253-5.456c5.082-23.27,22.72-27.152,40.358-22.376a2.749,2.749,0,0,1,1.865,3.576l-2.713,7.627a2.752,2.752,0,0,1-3.408,1.7c-7.94-2.445-17.309-1.735-19.671,9.851l-.81,3.913a2.752,2.752,0,0,0,2.69,3.309h12.151a2.75,2.75,0,0,1,2.69,3.317l-1.444,6.824a2.749,2.749,0,0,1-2.69,2.178H192.642a2.749,2.749,0,0,0-2.69,2.178l-11.119,52.471c-4.333,20.626-17,26.908-32.968,24.768a2.755,2.755,0,0,1-2.3-3.393L145.5,252.5a2.761,2.761,0,0,1,2.858-2.079c7.917.512,11.845-3.141,13.672-11.815l10.867-51.08A2.748,2.748,0,0,0,170.213,184.19Z" transform="translate(-90.559 -140.112)" fill="#58397e"/>
  <path id="Caminho_10120" data-name="Caminho 10120" d="M243.735,232.268H233.312a3.426,3.426,0,0,1-3.355-4.134l11.119-52.4a3.428,3.428,0,0,1,3.355-2.713h10.424a3.426,3.426,0,0,1,3.355,4.134l-11.119,52.4A3.434,3.434,0,0,1,243.735,232.268Zm12.487-87.258c4.478,0,8.467,2.614,8.467,7.963,0,7.841-6.473,11.7-12.449,11.7-4.478.122-8.467-2.369-8.467-7.719C243.774,149.366,250.369,145.01,256.223,145.01Z" transform="translate(-110.931 -141.267)" fill="#58397e"/>
  <g id="Grupo_3762" data-name="Grupo 3762" transform="translate(149.094 31.742)">
    <path id="Caminho_10121" data-name="Caminho 10121" d="M311.406,211.354l-24.317,28.352a2.525,2.525,0,0,1-1.918,1.215H271.415c-1.269.053-2.2-1.207-2.079-2.812v-.023a3.741,3.741,0,0,1,.6-1.758l21.237-24.21a3.569,3.569,0,0,0,.252-3.523L276.153,186.44a3.114,3.114,0,0,1-.344-1.758l-.046.428c.122-1.6,1.3-3.378,2.575-3.431H291.56a1.873,1.873,0,0,1,1.689.971l18.379,25.081A3.531,3.531,0,0,1,311.406,211.354Z" transform="translate(-269.326 -181.655)" fill="#58397e"/>
    <path id="Caminho_10122" data-name="Caminho 10122" d="M313.089,211.125l24.18-28.222a2.719,2.719,0,0,1,2-1.253h13.687c1.269-.053,2.14,1.116,2.01,2.721v.023a3.674,3.674,0,0,1-.535,1.758l-21.1,24.21a3.569,3.569,0,0,0-.252,3.523l15.208,22.261a3.114,3.114,0,0,1,.344,1.758h0a3.054,3.054,0,0,1-2.53,3H333.035a1.857,1.857,0,0,1-1.689-.971L312.867,214.74A3.535,3.535,0,0,1,313.089,211.125Z" transform="translate(-279.499 -181.648)" fill="#6cbde9"/>
  </g>
  <g id="Grupo_3763" data-name="Grupo 3763" transform="translate(118.147 98.161)">
    <path id="Caminho_10123" data-name="Caminho 10123" d="M235.586,270.371h-2.331v9.744h-2.033v-9.744H228.83V268.56h6.748v1.811Z" transform="translate(-228.83 -268.56)" fill="#6cbde9"/>
    <path id="Caminho_10124" data-name="Caminho 10124" d="M235.586,270.371h-2.331v9.744h-2.033v-9.744H228.83V268.56h6.748v1.811Z" transform="translate(-228.83 -268.56)" fill="#6cbde9"/>
    <path id="Caminho_10125" data-name="Caminho 10125" d="M235.586,270.371h-2.331v9.744h-2.033v-9.744H228.83V268.56h6.748v1.811Z" transform="translate(-228.83 -268.56)" fill="#6cbde9"/>
  </g>
  <g id="Grupo_3764" data-name="Grupo 3764" transform="translate(133.301 98.154)">
    <path id="Caminho_10126" data-name="Caminho 10126" d="M254.223,280.113H248.66V268.55h5.563v2.063h-3.5v2.377h3.248v2h-3.248v3h3.5Z" transform="translate(-248.66 -268.55)" fill="#6cbde9"/>
    <path id="Caminho_10127" data-name="Caminho 10127" d="M254.223,280.113H248.66V268.55h5.563v2.063h-3.5v2.377h3.248v2h-3.248v3h3.5Z" transform="translate(-248.66 -268.55)" fill="#6cbde9"/>
    <path id="Caminho_10128" data-name="Caminho 10128" d="M254.223,280.113H248.66V268.55h5.563v2.063h-3.5v2.377h3.248v2h-3.248v3h3.5Z" transform="translate(-248.66 -268.55)" fill="#6cbde9"/>
  </g>
  <g id="Grupo_3765" data-name="Grupo 3765" transform="translate(147.263 98.154)">
    <path id="Caminho_10129" data-name="Caminho 10129" d="M272.448,280.113H266.93V268.55h2.048v9.713h3.47Z" transform="translate(-266.93 -268.55)" fill="#6cbde9"/>
    <path id="Caminho_10130" data-name="Caminho 10130" d="M272.448,280.113H266.93V268.55h2.048v9.713h3.47Z" transform="translate(-266.93 -268.55)" fill="#6cbde9"/>
    <path id="Caminho_10131" data-name="Caminho 10131" d="M272.448,280.113H266.93V268.55h2.048v9.713h3.47Z" transform="translate(-266.93 -268.55)" fill="#6cbde9"/>
  </g>
  <g id="Grupo_3766" data-name="Grupo 3766" transform="translate(174.308 97.947)">
    <path id="Caminho_10132" data-name="Caminho 10132" d="M311.926,279.4a6.843,6.843,0,0,1-3.294.925,6.171,6.171,0,0,1-4.448-1.811,5.867,5.867,0,0,1-1.865-4.371,5.382,5.382,0,0,1,1.972-4.188,6.4,6.4,0,0,1,4.371-1.674,7.074,7.074,0,0,1,1.689.176,8.861,8.861,0,0,1,1.582.627l-1.169,1.36a4.72,4.72,0,0,0-2.2-.344,4.122,4.122,0,0,0-2.912,1.208,3.819,3.819,0,0,0-1.276,2.851,4.237,4.237,0,0,0,1.215,3.034,3.948,3.948,0,0,0,2.965,1.269,3.182,3.182,0,0,0,2.2-.642Z" transform="translate(-302.32 -268.28)" fill="#6cbde9"/>
    <path id="Caminho_10133" data-name="Caminho 10133" d="M311.926,279.4a6.843,6.843,0,0,1-3.294.925,6.171,6.171,0,0,1-4.448-1.811,5.867,5.867,0,0,1-1.865-4.371,5.382,5.382,0,0,1,1.972-4.188,6.4,6.4,0,0,1,4.371-1.674,7.074,7.074,0,0,1,1.689.176,8.861,8.861,0,0,1,1.582.627l-1.169,1.36a4.72,4.72,0,0,0-2.2-.344,4.122,4.122,0,0,0-2.912,1.208,3.819,3.819,0,0,0-1.276,2.851,4.237,4.237,0,0,0,1.215,3.034,3.948,3.948,0,0,0,2.965,1.269,3.182,3.182,0,0,0,2.2-.642Z" transform="translate(-302.32 -268.28)" fill="#6cbde9"/>
    <path id="Caminho_10134" data-name="Caminho 10134" d="M311.926,279.4a6.843,6.843,0,0,1-3.294.925,6.171,6.171,0,0,1-4.448-1.811,5.867,5.867,0,0,1-1.865-4.371,5.382,5.382,0,0,1,1.972-4.188,6.4,6.4,0,0,1,4.371-1.674,7.074,7.074,0,0,1,1.689.176,8.861,8.861,0,0,1,1.582.627l-1.169,1.36a4.72,4.72,0,0,0-2.2-.344,4.122,4.122,0,0,0-2.912,1.208,3.819,3.819,0,0,0-1.276,2.851,4.237,4.237,0,0,0,1.215,3.034,3.948,3.948,0,0,0,2.965,1.269,3.182,3.182,0,0,0,2.2-.642Z" transform="translate(-302.32 -268.28)" fill="#6cbde9"/>
  </g>
  <g id="Grupo_3767" data-name="Grupo 3767" transform="translate(192.023 97.94)">
    <path id="Caminho_10135" data-name="Caminho 10135" d="M338.064,274.269a5.659,5.659,0,0,1-1.872,4.287,6.449,6.449,0,0,1-8.834.015,5.871,5.871,0,0,1,.031-8.6,6.527,6.527,0,0,1,8.8,0A5.667,5.667,0,0,1,338.064,274.269Zm-2.048,0a3.947,3.947,0,0,0-1.238-2.95,4.369,4.369,0,0,0-6.007-.008,4.1,4.1,0,0,0,.023,5.892,4.311,4.311,0,0,0,5.976-.008A3.94,3.94,0,0,0,336.016,274.269Z" transform="translate(-325.5 -268.27)" fill="#6cbde9"/>
    <path id="Caminho_10136" data-name="Caminho 10136" d="M338.064,274.269a5.659,5.659,0,0,1-1.872,4.287,6.449,6.449,0,0,1-8.834.015,5.871,5.871,0,0,1,.031-8.6,6.527,6.527,0,0,1,8.8,0A5.667,5.667,0,0,1,338.064,274.269Zm-2.048,0a3.947,3.947,0,0,0-1.238-2.95,4.369,4.369,0,0,0-6.007-.008,4.1,4.1,0,0,0,.023,5.892,4.311,4.311,0,0,0,5.976-.008A3.94,3.94,0,0,0,336.016,274.269Z" transform="translate(-325.5 -268.27)" fill="#6cbde9"/>
    <path id="Caminho_10137" data-name="Caminho 10137" d="M338.064,274.269a5.659,5.659,0,0,1-1.872,4.287,6.449,6.449,0,0,1-8.834.015,5.871,5.871,0,0,1,.031-8.6,6.527,6.527,0,0,1,8.8,0A5.667,5.667,0,0,1,338.064,274.269Zm-2.048,0a3.947,3.947,0,0,0-1.238-2.95,4.369,4.369,0,0,0-6.007-.008,4.1,4.1,0,0,0,.023,5.892,4.311,4.311,0,0,0,5.976-.008A3.94,3.94,0,0,0,336.016,274.269Z" transform="translate(-325.5 -268.27)" fill="#6cbde9"/>
  </g>
  <g id="Grupo_3768" data-name="Grupo 3768" transform="translate(212.993 98.154)">
    <path id="Caminho_10138" data-name="Caminho 10138" d="M364.357,280.113h-2.1l-.008-6.19-3.561,3.752-3.561-3.752v6.19H352.94V268.55l5.686,6,5.732-6v11.563Z" transform="translate(-352.94 -268.55)" fill="#6cbde9"/>
    <path id="Caminho_10139" data-name="Caminho 10139" d="M364.357,280.113h-2.1l-.008-6.19-3.561,3.752-3.561-3.752v6.19H352.94V268.55l5.686,6,5.732-6v11.563Z" transform="translate(-352.94 -268.55)" fill="#6cbde9"/>
    <path id="Caminho_10140" data-name="Caminho 10140" d="M364.357,280.113h-2.1l-.008-6.19-3.561,3.752-3.561-3.752v6.19H352.94V268.55l5.686,6,5.732-6v11.563Z" transform="translate(-352.94 -268.55)" fill="#6cbde9"/>
  </g>
  <g id="Grupo_3769" data-name="Grupo 3769" transform="translate(161.187 98.154)">
    <path id="Caminho_10141" data-name="Caminho 10141" d="M290.713,280.113H285.15V268.55h5.563v2.063h-3.5v2.377h3.248v2h-3.248v3h3.5Z" transform="translate(-285.15 -268.55)" fill="#6cbde9"/>
    <path id="Caminho_10142" data-name="Caminho 10142" d="M290.713,280.113H285.15V268.55h5.563v2.063h-3.5v2.377h3.248v2h-3.248v3h3.5Z" transform="translate(-285.15 -268.55)" fill="#6cbde9"/>
    <path id="Caminho_10143" data-name="Caminho 10143" d="M290.713,280.113H285.15V268.55h5.563v2.063h-3.5v2.377h3.248v2h-3.248v3h3.5Z" transform="translate(-285.15 -268.55)" fill="#6cbde9"/>
  </g>
</svg>
